<svg width="105" height="110" fill="none" xmlns="http://www.w3.org/2000/svg"><path d="M52.73 109.216c28.57 0 51.731-23.16 51.731-51.73 0-28.57-23.16-51.73-51.73-51.73C24.16 5.755 1 28.915 1 57.485c0 28.57 23.16 51.73 51.73 51.73Z" fill="#6E6FAC"/><path d="M72.469 57.62c-6.194-4.634-1.604-16.219-10.427-27.715l-17.199 3.298-19.026-6.105L20.872 76.2s2.272.668 17.421 9.09c7.219 4.01 13.947 3.698 18.625 3.831 2.184.045 13.278 5.525 24.596 11.362 10.426-6.995 18.179-17.733 21.342-30.298-12.431-4.857-28.783-11.362-30.387-12.565Z" fill="url(#a)"/><path d="M62.043 29.905C52.107 16.093 51.528 16.45 50.147 7.003c.89-8.377-9.58-10.382-11.362.357-1.96 11.94 3.386 23.17 6.015 25.843 0 0-6.906 15.416 3.342 27.268 11.183 12.922 17.911 13.635 17.911 13.635s3.075-34.354-4.01-44.2Z" fill="#BF8F68"/><path d="m35.31 45.545-11.406-4.59c-4.456-1.96-7.13-6.639-5.793-10.337 1.337-3.698 6.15-4.723 10.427-2.406l10.649 5.035c3.832 1.604 5.48 5.926 4.233 9.49-.758 2.273-4.679 4.323-8.11 2.808Z" fill="#BF8F68"/><path d="M31.567 56.773 18.289 52.14c-4.367-1.515-7.085-5.748-5.793-9.357 1.292-3.609 5.97-4.99 10.204-3.163l12.877 5.792c3.342 1.426 5.035 4.99 3.965 7.976-1.025 3.03-4.544 4.545-7.975 3.386Z" fill="#BF8F68"/><path d="m30.408 67.2-10.694-1.961c-4.054-.847-8.11-4.545-6.505-9.134 1.248-3.565 3.654-4.679 9.98-2.807l12.788 3.609c.936.178 2.808 3.253 1.916 6.193-.802 2.941-4.143 4.812-7.485 4.1Z" fill="#BF8F68"/><path d="m26.532 77.18-4.322-.668c-3.92-.624-6.817-3.787-6.282-7.04.534-3.253 4.277-5.169 8.154-4.278l7.619 1.96c3.208.714 5.48 3.877 4.901 6.373-.802 3.698-3.43 4.322-10.07 3.653Z" fill="#BF8F68"/><path d="M83.83 35.742c-.623 1.916-1.826 3.52-3.386 4.723-.267.223-.312.58-.044.802 1.56 1.382 2.762 3.12 3.43 5.124a.54.54 0 0 0 1.026 0c.668-2.005 1.87-3.742 3.43-5.124a.501.501 0 0 0-.044-.802c-1.56-1.203-2.763-2.807-3.386-4.723-.223-.445-.847-.445-1.025 0Z" fill="#EAEAF3"/><path d="M73.895 20.637a7.096 7.096 0 0 1-2.406 3.387.38.38 0 0 0-.045.58 8.563 8.563 0 0 1 2.451 3.653c.134.356.624.356.713 0a8.563 8.563 0 0 1 2.45-3.654c.179-.178.179-.446-.044-.58a6.892 6.892 0 0 1-2.406-3.386c-.09-.311-.58-.311-.713 0Z" fill="#C3C3E1"/><defs><radialGradient id="a" cx="0" cy="0" r="1" gradientUnits="userSpaceOnUse" gradientTransform="translate(28.52 52.355) scale(40.2453)"><stop stop-color="#9B643D"/><stop offset=".342" stop-color="#AD7952"/><stop offset=".713" stop-color="#BA8962"/><stop offset="1" stop-color="#BF8F68"/></radialGradient></defs></svg>